<?xml version="1.0" encoding="UTF-8" standalone="no"?>
<svg
   version="1.0"
   width="1024.000000pt"
   height="1024.000000pt"
   viewBox="0 0 1024.000000 1024.000000"
   preserveAspectRatio="xMidYMid meet"
   id="svg14"
   sodipodi:docname="logoescudo.svg"
   inkscape:version="1.4.2 (f4327f4, 2025-05-13)"
   xmlns:inkscape="http://www.inkscape.org/namespaces/inkscape"
   xmlns:sodipodi="http://sodipodi.sourceforge.net/DTD/sodipodi-0.dtd"
   xmlns="http://www.w3.org/2000/svg"
   xmlns:svg="http://www.w3.org/2000/svg">
  <defs
     id="defs14" />
  <sodipodi:namedview
     id="namedview14"
     pagecolor="#ffffff"
     bordercolor="#000000"
     borderopacity="0.25"
     inkscape:showpageshadow="2"
     inkscape:pageopacity="0.0"
     inkscape:pagecheckerboard="0"
     inkscape:deskcolor="#d1d1d1"
     inkscape:document-units="pt"
     inkscape:zoom="0.59692383"
     inkscape:cx="684.34192"
     inkscape:cy="682.66666"
     inkscape:window-width="1920"
     inkscape:window-height="1017"
     inkscape:window-x="-8"
     inkscape:window-y="-8"
     inkscape:window-maximized="1"
     inkscape:current-layer="svg14" />
  <g
     id="g14"
     transform="matrix(4.6030189,0,0,4.6030189,-526.32364,-1752.9486)">
    <path
       d="M 216.1,388.5 C 196.7,399.9 159.6,411 141.3,411 h -5.4 l 0.4,48.2 c 0.3,45.9 0.4,48.7 2.5,56.7 6.1,23 20.8,43.7 43.4,60.6 14.6,11 38.2,24.5 42.9,24.5 3,0 22.1,-10 34,-17.9 29.9,-19.8 47,-41.8 54.6,-70.3 1.4,-5.3 1.7,-13.7 2,-53.5 l 0.4,-47.2 -3.3,-0.5 c -1.8,-0.3 -6.2,-0.8 -9.8,-1.1 -20.5,-1.9 -55.5,-13.3 -71.9,-23.4 -2.8,-1.7 -5.7,-3.1 -6.4,-3 -0.6,0 -4.5,2 -8.6,4.4 z m 63.7,96.1 -0.3,31.1 -4.3,8.7 c -3.1,6.3 -6.4,10.9 -11.4,16.2 -3.9,4.1 -7.4,7.4 -7.9,7.4 -0.5,0 -0.9,-21.6 -0.9,-48 v -48 l 12.2,-8 12.3,-8 0.3,8.7 c 0.2,4.9 0.2,22.8 0,39.9 z m -39.7,19.1 c 0,22.5 0,44.1 0,48.1 0.1,8.2 0.2,8 -8.7,12.8 l -5.1,2.7 -5.6,-2.3 -5.7,-2.4 v -41.7 -41.7 l 11.8,-8.1 c 6.4,-4.4 12,-8 12.5,-8.1 0.4,0 0.7,18.3 0.8,40.7 z M 200,522.1 v 32 l -3.1,-1.8 c -5.5,-3.1 -15.5,-13.6 -18,-18.8 -1.9,-4.1 -2.4,-6.9 -2.7,-16 l -0.4,-11 11.9,-8.2 c 6.5,-4.5 11.9,-8.2 12.1,-8.2 0.1,-0.1 0.2,14.3 0.2,32 z"
       id="path1"
       style="fill:#000000;stroke:none;stroke-width:0.1" />
  </g>
  <path
     style="fill:#24221c;stroke:#000000;stroke-width:6.33168;fill-opacity:1"
     d="M 665.07648,1346.7357 C 617.10845,1330.4253 498.96815,1260.7223 421.30288,1202.9089 279.43523,1097.3038 188.39559,970.77808 150.63534,826.73865 138.89791,781.96528 137.94945,759.99886 135.69839,480.79836 134.73266,361.01759 133.77158,246.01075 133.56267,225.22761 l -0.37985,-37.78751 39.36851,-1.94286 c 64.46493,-3.18139 124.18536,-14.42759 211.08221,-39.74976 95.11072,-27.71573 175.75336,-60.913926 253.50907,-104.36223 18.26713,-10.207297 35.3127,-19.019902 37.87904,-19.583567 5.99544,-1.316818 16.8584,3.468596 44.77679,19.725341 75.51404,43.971459 193.71009,88.867396 311.32136,118.253226 49.4029,12.34358 90.7734,19.49896 146.5849,25.35313 18.8885,1.98125 39.9967,4.484 46.9072,5.56164 l 12.5644,1.95938 -0.5055,75.3865 c -1.3838,206.40583 -3.8774,414.93361 -5.4188,453.15664 -2.7636,68.53044 -4.6318,79.82031 -21.5895,130.46864 -60.4222,180.46472 -189.3123,318.76752 -413.95408,444.18432 -49.02339,27.3696 -108.84424,55.5678 -117.1045,55.2003 -0.52967,-0.024 -6.61701,-1.9653 -13.52744,-4.3151 z m 53.63612,-217.9509 c 33.79892,-18.2347 44.28274,-25.4662 49.29849,-34.0053 3.41881,-5.8202 3.44774,-7.4149 3.93695,-216.94556 0.48993,-209.84972 -1.41613,-370.14963 -4.43723,-373.17074 -1.79713,-1.79713 -25.67939,12.98921 -71.52486,44.28354 -16.63055,11.3521 -41.30242,28.17882 -54.82639,37.39273 l -24.58903,16.75255 -0.0382,256.52389 -0.0382,256.52389 33.92392,14.3429 c 18.65816,7.8885 34.87929,14.3905 36.04698,14.4487 1.16767,0.058 15.6791,-7.2078 32.24763,-16.1466 z M 525.31729,669.66847 c -0.84841,-0.8484 2.0504,-2.79126 -82.63099,55.38136 l -65.75379,45.17013 0.01,11.92561 c 0.0185,22.22366 3.38611,92.25799 5.12483,106.57754 5.06334,41.70048 19.52203,67.40091 63.39366,112.68269 26.00041,26.8361 42.53553,40.7202 63.47356,53.297 l 16.25816,9.7658 0.42573,-197.03664 c 0.23415,-108.37017 0.0987,-197.36374 -0.30108,-197.76349 z m 375.82008,328.36506 c 46.7831,-46.81005 62.5682,-68.79082 93.37555,-130.02545 l 20.95708,-41.65571 0.2863,-243.41471 c 0.1574,-133.87807 -0.2265,-243.92846 -0.8532,-244.5564 -0.6267,-0.62793 -29.65053,17.50534 -64.49737,40.29617 -34.84684,22.79081 -68.81958,44.91437 -75.49499,49.16344 l -12.13709,7.72559 0.019,225.32188 c 0.0173,205.15542 1.71667,348.66836 4.27003,360.59876 0.54558,2.5492 2.11256,4.607 3.50817,4.607 1.38721,0 15.14215,-12.6273 30.56656,-28.06057 z"
     id="path2"
     transform="scale(0.75)" />
</svg>
